<svg id="visual" viewBox="0 0 900 600" width="900" height="600" xmlns="http://www.w3.org/2000/svg" xmlns:xlink="http://www.w3.org/1999/xlink" version="1.1"><rect x="0" y="0" width="900" height="600" fill="#FFFFFF"></rect><defs><linearGradient id="grad1_0" x1="33.3%" y1="0%" x2="100%" y2="100%"><stop offset="20%" stop-color="#87ceeb" stop-opacity="1"></stop><stop offset="80%" stop-color="#87ceeb" stop-opacity="1"></stop></linearGradient></defs><defs><linearGradient id="grad1_1" x1="33.3%" y1="0%" x2="100%" y2="100%"><stop offset="20%" stop-color="#87ceeb" stop-opacity="1"></stop><stop offset="80%" stop-color="#a2d8ef" stop-opacity="1"></stop></linearGradient></defs><defs><linearGradient id="grad1_2" x1="33.3%" y1="0%" x2="100%" y2="100%"><stop offset="20%" stop-color="#bae1f3" stop-opacity="1"></stop><stop offset="80%" stop-color="#a2d8ef" stop-opacity="1"></stop></linearGradient></defs><defs><linearGradient id="grad1_3" x1="33.3%" y1="0%" x2="100%" y2="100%"><stop offset="20%" stop-color="#bae1f3" stop-opacity="1"></stop><stop offset="80%" stop-color="#d2ebf7" stop-opacity="1"></stop></linearGradient></defs><defs><linearGradient id="grad1_4" x1="33.3%" y1="0%" x2="100%" y2="100%"><stop offset="20%" stop-color="#e9f5fb" stop-opacity="1"></stop><stop offset="80%" stop-color="#d2ebf7" stop-opacity="1"></stop></linearGradient></defs><defs><linearGradient id="grad1_5" x1="33.3%" y1="0%" x2="100%" y2="100%"><stop offset="20%" stop-color="#e9f5fb" stop-opacity="1"></stop><stop offset="80%" stop-color="#ffffff" stop-opacity="1"></stop></linearGradient></defs><defs><linearGradient id="grad2_0" x1="0%" y1="0%" x2="66.7%" y2="100%"><stop offset="20%" stop-color="#87ceeb" stop-opacity="1"></stop><stop offset="80%" stop-color="#87ceeb" stop-opacity="1"></stop></linearGradient></defs><defs><linearGradient id="grad2_1" x1="0%" y1="0%" x2="66.7%" y2="100%"><stop offset="20%" stop-color="#a2d8ef" stop-opacity="1"></stop><stop offset="80%" stop-color="#87ceeb" stop-opacity="1"></stop></linearGradient></defs><defs><linearGradient id="grad2_2" x1="0%" y1="0%" x2="66.7%" y2="100%"><stop offset="20%" stop-color="#a2d8ef" stop-opacity="1"></stop><stop offset="80%" stop-color="#bae1f3" stop-opacity="1"></stop></linearGradient></defs><defs><linearGradient id="grad2_3" x1="0%" y1="0%" x2="66.7%" y2="100%"><stop offset="20%" stop-color="#d2ebf7" stop-opacity="1"></stop><stop offset="80%" stop-color="#bae1f3" stop-opacity="1"></stop></linearGradient></defs><defs><linearGradient id="grad2_4" x1="0%" y1="0%" x2="66.7%" y2="100%"><stop offset="20%" stop-color="#d2ebf7" stop-opacity="1"></stop><stop offset="80%" stop-color="#e9f5fb" stop-opacity="1"></stop></linearGradient></defs><defs><linearGradient id="grad2_5" x1="0%" y1="0%" x2="66.7%" y2="100%"><stop offset="20%" stop-color="#ffffff" stop-opacity="1"></stop><stop offset="80%" stop-color="#e9f5fb" stop-opacity="1"></stop></linearGradient></defs><g transform="translate(900, 0)"><path d="M0 486.7C-47.3 443.2 -94.7 399.7 -158.8 383.4C-223 367.2 -303.9 378.2 -344.2 344.2C-384.4 310.1 -384 231 -401 166.1C-417.9 101.2 -452.3 50.6 -486.7 0L0 0Z" fill="#f4fafd"></path><path d="M0 405.6C-39.4 369.3 -78.9 333 -132.3 319.5C-185.8 306 -253.3 315.2 -286.8 286.8C-320.4 258.4 -320 192.5 -334.1 138.4C-348.3 84.3 -377 42.2 -405.6 0L0 0Z" fill="#ddf0f9"></path><path d="M0 324.5C-31.6 295.5 -63.1 266.4 -105.9 255.6C-148.6 244.8 -202.6 252.2 -229.5 229.5C-256.3 206.8 -256 154 -267.3 110.7C-278.6 67.5 -301.6 33.7 -324.5 0L0 0Z" fill="#c6e6f5"></path><path d="M0 243.4C-23.7 221.6 -47.3 199.8 -79.4 191.7C-111.5 183.6 -152 189.1 -172.1 172.1C-192.2 155.1 -192 115.5 -200.5 83C-209 50.6 -226.2 25.3 -243.4 0L0 0Z" fill="#aeddf1"></path><path d="M0 162.2C-15.8 147.7 -31.6 133.2 -52.9 127.8C-74.3 122.4 -101.3 126.1 -114.7 114.7C-128.1 103.4 -128 77 -133.7 55.4C-139.3 33.7 -150.8 16.9 -162.2 0L0 0Z" fill="#95d3ed"></path><path d="M0 81.1C-7.9 73.9 -15.8 66.6 -26.5 63.9C-37.2 61.2 -50.7 63 -57.4 57.4C-64.1 51.7 -64 38.5 -66.8 27.7C-69.7 16.9 -75.4 8.4 -81.1 0L0 0Z" fill="#87ceeb"></path></g><g transform="translate(0, 600)"><path d="M0 -486.7C63.1 -480 126.3 -473.2 186.3 -449.7C246.3 -426.2 303.1 -385.9 334.5 -334.5C365.8 -283 371.5 -220.3 392.6 -162.6C413.8 -105 450.3 -52.5 486.7 0L0 0Z" fill="#f4fafd"></path><path d="M0 -405.6C52.6 -400 105.2 -394.3 155.2 -374.7C205.2 -355.2 252.6 -321.6 278.7 -278.7C304.8 -235.8 309.6 -183.5 327.2 -135.5C344.8 -87.5 375.2 -43.8 405.6 0L0 0Z" fill="#ddf0f9"></path><path d="M0 -324.5C42.1 -320 84.2 -315.5 124.2 -299.8C164.2 -284.1 202.1 -257.3 223 -223C243.8 -188.7 247.7 -146.8 261.8 -108.4C275.8 -70 300.2 -35 324.5 0L0 0Z" fill="#c6e6f5"></path><path d="M0 -243.4C31.6 -240 63.1 -236.6 93.1 -224.8C123.1 -213.1 151.6 -193 167.2 -167.2C182.9 -141.5 185.8 -110.1 196.3 -81.3C206.9 -52.5 225.1 -26.3 243.4 0L0 0Z" fill="#aeddf1"></path><path d="M0 -162.2C21 -160 42.1 -157.7 62.1 -149.9C82.1 -142.1 101 -128.6 111.5 -111.5C121.9 -94.3 123.8 -73.4 130.9 -54.2C137.9 -35 150.1 -17.5 162.2 0L0 0Z" fill="#95d3ed"></path><path d="M0 -81.1C10.5 -80 21 -78.9 31 -74.9C41 -71 50.5 -64.3 55.7 -55.7C61 -47.2 61.9 -36.7 65.4 -27.1C69 -17.5 75 -8.8 81.1 0L0 0Z" fill="#87ceeb"></path></g></svg>