<svg id="visual" viewBox="0 0 900 600" width="900" height="600" xmlns="http://www.w3.org/2000/svg" xmlns:xlink="http://www.w3.org/1999/xlink" version="1.1"><path d="M0 187L13.7 178C27.3 169 54.7 151 82 156C109.3 161 136.7 189 163.8 194C191 199 218 181 245.2 162C272.3 143 299.7 123 327 128C354.3 133 381.7 163 409 178C436.3 193 463.7 193 491 177C518.3 161 545.7 129 573 121C600.3 113 627.7 129 654.8 136C682 143 709 141 736.2 153C763.3 165 790.7 191 818 186C845.3 181 872.7 145 886.3 127L900 109L900 0L886.3 0C872.7 0 845.3 0 818 0C790.7 0 763.3 0 736.2 0C709 0 682 0 654.8 0C627.7 0 600.3 0 573 0C545.7 0 518.3 0 491 0C463.7 0 436.3 0 409 0C381.7 0 354.3 0 327 0C299.7 0 272.3 0 245.2 0C218 0 191 0 163.8 0C136.7 0 109.3 0 82 0C54.7 0 27.3 0 13.7 0L0 0Z" fill="#8bc6f9"></path><path d="M0 247L13.7 242C27.3 237 54.7 227 82 237C109.3 247 136.7 277 163.8 281C191 285 218 263 245.2 245C272.3 227 299.7 213 327 216C354.3 219 381.7 239 409 244C436.3 249 463.7 239 491 218C518.3 197 545.7 165 573 165C600.3 165 627.7 197 654.8 206C682 215 709 201 736.2 210C763.3 219 790.7 251 818 255C845.3 259 872.7 235 886.3 223L900 211L900 107L886.3 125C872.7 143 845.3 179 818 184C790.7 189 763.3 163 736.2 151C709 139 682 141 654.8 134C627.7 127 600.3 111 573 119C545.7 127 518.3 159 491 175C463.7 191 436.3 191 409 176C381.7 161 354.3 131 327 126C299.7 121 272.3 141 245.2 160C218 179 191 197 163.8 192C136.7 187 109.3 159 82 154C54.7 149 27.3 167 13.7 176L0 185Z" fill="#6fb9f8"></path><path d="M0 373L13.7 356C27.3 339 54.7 305 82 320C109.3 335 136.7 399 163.8 402C191 405 218 347 245.2 320C272.3 293 299.7 297 327 307C354.3 317 381.7 333 409 349C436.3 365 463.7 381 491 370C518.3 359 545.7 321 573 302C600.3 283 627.7 283 654.8 295C682 307 709 331 736.2 343C763.3 355 790.7 355 818 353C845.3 351 872.7 347 886.3 345L900 343L900 209L886.3 221C872.7 233 845.3 257 818 253C790.7 249 763.3 217 736.2 208C709 199 682 213 654.8 204C627.7 195 600.3 163 573 163C545.7 163 518.3 195 491 216C463.7 237 436.3 247 409 242C381.7 237 354.3 217 327 214C299.7 211 272.3 225 245.2 243C218 261 191 283 163.8 279C136.7 275 109.3 245 82 235C54.7 225 27.3 235 13.7 240L0 245Z" fill="#4facf7"></path><path d="M0 493L13.7 493C27.3 493 54.7 493 82 502C109.3 511 136.7 529 163.8 531C191 533 218 519 245.2 521C272.3 523 299.7 541 327 536C354.3 531 381.7 503 409 494C436.3 485 463.7 495 491 505C518.3 515 545.7 525 573 524C600.3 523 627.7 511 654.8 512C682 513 709 527 736.2 537C763.3 547 790.7 553 818 552C845.3 551 872.7 543 886.3 539L900 535L900 341L886.3 343C872.7 345 845.3 349 818 351C790.7 353 763.3 353 736.2 341C709 329 682 305 654.8 293C627.7 281 600.3 281 573 300C545.7 319 518.3 357 491 368C463.7 379 436.3 363 409 347C381.7 331 354.3 315 327 305C299.7 295 272.3 291 245.2 318C218 345 191 403 163.8 400C136.7 397 109.3 333 82 318C54.7 303 27.3 337 13.7 354L0 371Z" fill="#4395d9"></path><path d="M0 601L13.7 601C27.3 601 54.7 601 82 601C109.3 601 136.7 601 163.8 601C191 601 218 601 245.2 601C272.3 601 299.7 601 327 601C354.3 601 381.7 601 409 601C436.3 601 463.7 601 491 601C518.3 601 545.7 601 573 601C600.3 601 627.7 601 654.8 601C682 601 709 601 736.2 601C763.3 601 790.7 601 818 601C845.3 601 872.7 601 886.3 601L900 601L900 533L886.3 537C872.7 541 845.3 549 818 550C790.7 551 763.3 545 736.2 535C709 525 682 511 654.8 510C627.7 509 600.3 521 573 522C545.7 523 518.3 513 491 503C463.7 493 436.3 483 409 492C381.7 501 354.3 529 327 534C299.7 539 272.3 521 245.2 519C218 517 191 531 163.8 529C136.7 527 109.3 509 82 500C54.7 491 27.3 491 13.7 491L0 491Z" fill="#377ebb"></path></svg>